Coordinates
version=1
nRows=24
nColumns=24
inDegrees=yes

Units are S.I. units (second, meters, Newtons, ...)
Angles are in degrees.

endheader
time	pelvis_tilt	pelvis_list	pelvis_rotation	pelvis_tx	pelvis_ty	pelvis_tz	hip_flexion_r	hip_adduction_r	hip_rotation_r	knee_angle_r	ankle_angle_r	subtalar_angle_r	mtp_angle_r	hip_flexion_l	hip_adduction_l	hip_rotation_l	knee_angle_l	ankle_angle_l	subtalar_angle_l	mtp_angle_l	lumbar_extension	lumbar_bending	lumbar_rotation
      0.64400000	      5.97286757	      2.76425698	      4.63416684	      0.06420665	      0.97998161	      0.28477631	     18.22923516	     -4.15955440	     -5.15853597	      5.11935428	      2.04952161	     -5.54813090	      0.08104407	    -32.29855324	      4.11394564	     10.07879114	      2.01178090	      7.96725909	    -10.89182391	     -0.10312021	    -18.33452766	      8.26183988	    -14.64235993
      0.64816667	      5.92347202	      2.64382123	      4.68720463	      0.07021336	      0.97925935	      0.28501632	     18.29276451	     -4.01427004	     -4.69656966	      4.64201839	      1.85789351	     -6.12121543	      0.13191210	    -32.37559253	      3.96316715	      9.91254074	      1.58079255	      7.94497244	    -10.74493722	     -0.17640702	    -18.24554583	      8.45101159	    -14.62978650
      0.65233333	      5.88973484	      2.49686207	      4.73649125	      0.07628043	      0.97857567	      0.28527144	     18.33263932	     -3.83622512	     -4.23675063	      4.14677055	      1.59584776	     -6.74754327	      0.17817685	    -32.46318451	      3.78782618	      9.71946814	      1.13742225	      7.92260604	    -10.57926776	     -0.20078683	    -18.17394566	      8.67798408	    -14.58327912
      0.65650000	      5.84711605	      2.33857152	      4.78750251	      0.08239323	      0.97790947	      0.28554216	     18.38316340	     -3.64376892	     -3.79323171	      3.62266192	      1.26702005	     -7.39830730	      0.22004869	    -32.52811252	      3.60269281	      9.51990930	      0.66916848	      7.88052877	    -10.42069167	     -0.17776040	    -18.08950172	      8.91233833	    -14.54101825
      0.66066667	      5.80072895	      2.16857896	      4.83294171	      0.08856139	      0.97726084	      0.28583352	     18.44065326	     -3.43472001	     -3.36258021	      3.07108039	      0.87325183	     -8.07296136	      0.25939113	    -32.58231578	      3.40998895	      9.30916616	      0.18775525	      7.81262081	    -10.27871309	     -0.10880496	    -17.99256962	      9.15941696	    -14.48809635
      0.66483333	      5.75226362	      1.98392663	      4.87824324	      0.09477959	      0.97663408	      0.28613874	     18.50033253	     -3.20726767	     -2.95532760	      2.50388175	      0.40656109	     -8.77748557	      0.29701996	    -32.62341086	      3.20465028	      9.08358639	     -0.31351628	      7.71990873	    -10.15038925	      0.00693368	    -17.88605021	      9.42538426	    -14.43520532
      0.66900000	      5.69582147	      1.78532301	      4.92199700	      0.10104633	      0.97602704	      0.28645215	     18.57300969	     -2.96294017	     -2.57827828	      1.91551824	     -0.12458589	     -9.48480946	      0.33299981	    -32.64573136	      2.98921163	      8.85215953	     -0.83256722	      7.60013287	    -10.03739026	      0.16996619	    -17.77073268	      9.70677861	    -14.38076358
      0.67316667	      5.63534405	      1.57583230	      4.96145342	      0.10735590	      0.97543772	      0.28678439	     18.65659205	     -2.70403848	     -2.23472447	      1.30800157	     -0.72146214	    -10.19262141	      0.36735543	    -32.65424530	      2.76603091	      8.61632068	     -1.36793065	      7.44738247	     -9.94361465	      0.37669944	    -17.64347558	      9.99895123	    -14.32541736
      0.67733333	      5.57593795	      1.35186361	      5.00134722	      0.11370814	      0.97488085	      0.28713904	     18.74146272	     -2.42692189	     -1.92300284	      0.69107465	     -1.37361585	    -10.91049485	      0.40243457	    -32.64876196	      2.52918521	      8.36526872	     -1.93107344	      7.26947330	     -9.86411470	      0.64543850	    -17.51365318	     10.30609729	    -14.26821359
      0.68150000	      5.50349888	      1.11949133	      5.03908140	      0.12009767	      0.97433776	      0.28749771	     18.85422632	     -2.14136630	     -1.66166184	      0.04289558	     -2.07293512	    -11.59327901	      0.43473368	    -32.61944232	      2.28807768	      8.11878172	     -2.50862923	      7.05482881	     -9.80630911	      0.95180900	    -17.36554059	     10.62445740	    -14.21392133
      0.68566667	      5.45389958	      0.84940902	      5.08872942	      0.12653604	      0.97384913	      0.28784435	     18.95099046	     -1.81904322	     -1.51082589	     -0.62479973	     -2.78823147	    -12.18732710	      0.89709553	    -32.56914857	      1.99968896	      7.72757097	     -3.16705530	      6.85811764	     -9.56144168	      4.65255136	    -17.25101627	     10.98836555	    -14.06937366
      0.68983333	      5.36364133	      0.61510156	      5.10357859	      0.13297601	      0.97333867	      0.28824976	     19.11565419	     -1.52626419	     -1.29792202	     -1.33983604	     -3.52769492	    -12.81299388	      0.89293831	    -32.51443612	      1.77399568	      7.54823866	     -3.74513681	      6.46842875	     -9.73167939	      4.73846556	    -17.06851704	     11.31172649	    -14.09680645
      0.69400000	      5.28719604	      0.35233764	      5.12961240	      0.13945323	      0.97288187	      0.28866501	     19.26391271	     -1.20458503	     -1.15329812	     -2.05167187	     -4.30697210	    -13.42869647	      0.89030218	    -32.43784194	      1.51131337	      7.29499619	     -4.39305900	      6.14052688	     -9.75595886	      4.90148019	    -16.91463684	     11.65886212	    -14.03737528
      0.69816667	      5.26667967	      0.05401056	      5.14653102	      0.14596860	      0.97251387	      0.28909880	     19.35524539	     -0.83766362	     -1.03825811	     -2.76851698	     -5.07337138	    -14.04461042	      0.91102177	    -32.40714304	      1.21060909	      6.94953001	     -5.05690408	      5.78296720	     -9.66502799	      5.48679514	    -16.82530913	     12.06439799	    -13.98111218
      0.70233333	      5.17298998	     -0.22989948	      5.19535446	      0.15249070	      0.97211636	      0.28949049	     19.54974893	     -0.50892297	     -1.05551192	     -3.54361515	     -5.84012548	    -14.49351168	      1.03057696	    -32.25233695	      0.91670687	      6.66938388	     -5.80739426	      5.40293071	     -9.65444319	      8.15615738	    -16.64573521	     12.42895207	    -13.86094936
      0.70650000	      5.06033706	     -0.49462404	      5.16468150	      0.15902157	      0.97168991	      0.28999687	     19.81772925	     -0.17725827	     -1.00521787	     -4.43148589	     -6.43367259	    -14.85936747	      1.02392212	    -32.09576279	      0.68766136	      6.40656116	     -6.52202274	      4.91398479	     -9.80066760	      8.25660146	    -16.44920909	     12.77639132	    -13.84596013
      0.71066667	      4.97959251	     -0.78597977	      5.16314949	      0.16557582	      0.97134887	      0.29047724	     20.03808867	      0.17489049	     -1.01012731	     -5.29794429	     -7.05543012	    -15.25180736	      1.01754309	    -31.93984830	      0.41134001	      6.10633587	     -7.29268867	      4.44263297	     -9.85402307	      8.44636182	    -16.28202460	     13.15561059	    -13.78413967
      0.71483333	      4.89912975	     -1.08532103	      5.14766139	      0.17214395	      0.97103231	      0.29099599	     20.28175117	      0.53919659	     -1.04870780	     -6.21922687	     -7.60860578	    -15.61851516	      1.01470620	    -31.76893762	      0.13048858	      5.79492055	     -8.08672062	      3.94736759	     -9.85535404	      8.81484205	    -16.11962127	     13.54356841	    -13.71821129
      0.71900000	      4.88619290	     -1.43053486	      5.11449414	      0.17873529	      0.97081821	      0.29156553	     20.44445287	      0.96404109	     -1.08761501	     -7.12481935	     -8.07421722	    -15.91611645	      1.04234087	    -31.62436476	     -0.20487963	      5.27733015	     -8.95777707	      3.43091701	     -9.68018250	     11.99775512	    -16.04336397	     13.99933474	    -13.69771983
      0.72316667	      4.82696781	     -1.74358367	      5.08483301	      0.18533843	      0.97059614	      0.29208696	     20.69468032	      1.33810288	     -1.21801077	     -8.13328025	     -8.37918710	    -16.02186198	      1.03710866	    -31.45685064	     -0.48878737	      5.02743040	     -9.77301884	      2.74735985	     -9.87353254	     12.04321100	    -15.90599992	     14.40573115	    -13.58690330
      0.72733333	      4.71347977	     -2.02061980	      5.03599856	      0.19190105	      0.97032565	      0.29268315	     21.03804590	      1.67772611	     -1.32916028	     -9.22728135	     -8.59885564	    -16.14850534	      1.02792252	    -31.18060785	     -0.73165054	      4.74546839	    -10.68876414	      2.11414074	     -9.99250316	     12.30230561	    -15.72151945	     14.73590376	    -13.48986284
      0.73150000	      4.70488017	     -2.36489611	      4.97202278	      0.19851669	      0.97021482	      0.29329992	     21.23404408	      2.10429596	     -1.42288887	    -10.25428057	     -8.74059264	    -16.24846239	      1.02273583	    -31.01787446	     -1.04534271	      4.37466943	    -11.58690429	      1.38218867	    -10.07037583	     12.40140877	    -15.65882097	     15.18171362	    -13.42536535
      0.73566667	      4.59221051	     -2.64700099	      4.89534813	      0.20508785	      0.96997418	      0.29395893	     21.60609827	      2.45309118	     -1.56744621	    -11.44180612	     -8.71018905	    -16.22118809	      0.99641971	    -30.68082076	     -1.29634150	      3.98756246	    -12.61584661	      0.75398285	     -9.98902865	     12.97781254	    -15.47430001	     15.51876756	    -13.31517233
      0.73983333	      4.64439467	     -3.00510766	      4.81435644	      0.21169994	      0.96997933	      0.29461123	     21.74943037	      2.89778392	     -1.70744942	    -12.52649184	     -8.55904010	    -16.09953463	      0.68701919	    -30.53439439	     -1.63379801	      3.53584761	    -13.58510977	     -0.11072552	    -10.07702308	     17.48050019	    -15.48017415	     15.99371272	    -13.30798411
